<svg width="40" height="40" viewBox="0 0 40 40" fill="none" xmlns="http://www.w3.org/2000/svg">
<path fill-rule="evenodd" clip-rule="evenodd" d="M20 40C31.0457 40 40 31.0457 40 20C40 8.9543 31.0457 0 20 0C8.9543 0 0 8.9543 0 20C0 31.0457 8.9543 40 20 40Z" fill="#E8EFF1"/>
<path fill-rule="evenodd" clip-rule="evenodd" d="M26 15H24C24 15 23 13 22 13H18C16.9941 13 16 15 16 15H14C12 15 12 17 12 17V25C12 25 12 27 14 27H26C28 27 28 25 28 25V17C28 17 28 15 26 15ZM22.8259 23.8258C22.0431 24.6085 21.1013 25 20 25C18.8987 25 17.9569 24.6085 17.1741 23.8258C16.3913 23.0431 16 22.1011 16 21C16 19.8987 16.3914 18.9569 17.1741 18.1741C17.9568 17.3913 18.8987 17 20 17C21.1012 17 22.0431 17.3914 22.8259 18.1741C23.6086 18.9568 24 19.8987 24 21C24 22.1011 23.6087 23.043 22.8259 23.8258ZM18.5868 19.5869C18.978 19.1956 19.4491 19 20 19C20.5509 19 21.022 19.1956 21.4132 19.5869C21.8044 19.9781 22 20.4491 22 21.0001C22 21.551 21.8044 22.022 21.4132 22.4133C21.022 22.8044 20.5509 23 20 23C19.449 23 18.978 22.8044 18.5868 22.4133C18.1956 22.022 18 21.551 18 21.0001C18 20.4491 18.1956 19.9781 18.5868 19.5869Z" fill="#A3A9B1"/>
</svg>
