<?xml version="1.0" encoding="UTF-8" standalone="no"?>
<svg
   xmlns:dc="http://purl.org/dc/elements/1.1/"
   xmlns:cc="http://creativecommons.org/ns#"
   xmlns:rdf="http://www.w3.org/1999/02/22-rdf-syntax-ns#"
   xmlns:svg="http://www.w3.org/2000/svg"
   xmlns="http://www.w3.org/2000/svg"
   id="svg4582"
   version="1.1"
   fill="none"
   viewBox="0 0 50 40"
   height="40"
   width="50">
  <metadata
     id="metadata4588">
    <rdf:RDF>
      <cc:Work
         rdf:about="">
        <dc:format>image/svg+xml</dc:format>
        <dc:type
           rdf:resource="http://purl.org/dc/dcmitype/StillImage" />
        <dc:title></dc:title>
      </cc:Work>
    </rdf:RDF>
  </metadata>
  <defs
     id="defs4586" />
  <rect
     style="fill:none"
     id="rect4578"
     fill="#282E37"
     rx="4"
     height="40"
     width="50" />
  <path
     style="clip-rule:evenodd;fill:#ffffff;fill-opacity:1;fill-rule:evenodd;stroke-width:1.03169799"
     id="path5143"
     d="m 16.091334,27.512003 c 0,0.200226 0.154384,0.367098 0.348358,0.367098 h 2.414738 c 0.190015,0 0.348359,-0.162657 0.348359,-0.367098 V 21.15771 l -1.753657,1.848134 c -0.372109,0.387929 -0.702298,0.787972 -1.357798,0.787972 z m 4.148606,0.0025 c 0,0.198893 0.154383,0.364636 0.34836,0.364636 h 2.414736 c 0.190015,0 0.348358,-0.161647 0.348358,-0.364636 V 23.316922 L 20.23994,20.167658 Z m 4.148606,0.05799 c 0,0.167275 0.154383,0.30665 0.348359,0.30665 h 2.414716 c 0.190006,0 0.348379,-0.135878 0.348379,-0.30665 V 20.5 l -2.763095,2.874992 c -0.106891,0.0941 -0.225644,0.143993 -0.348359,0.21367 z m 4.148606,-8.119116 V 27.5565 c 0,0.176009 0.15444,0.32266 0.34838,0.32266 h 2.414695 c 0.190006,0 0.348379,-0.142965 0.348379,-0.32266 V 16.235262 Z m 4.495845,-7.994637 c -0.02034,0 -0.0446,0 -0.06482,0 -1.149786,0.05397 -2.295527,0.112072 -3.445313,0.166023 -0.153817,0.0082 -0.364352,0.01665 -0.530296,0.18678 -0.05269,0.05395 -0.09313,0.116223 -0.125488,0.190934 -0.170088,0.377718 0.06875,0.622612 0.182127,0.738835 l 0.287499,0.298851 c 0.198304,0.207534 0.400755,0.415078 0.603206,0.618464 l -5.910134,6.100546 -3.121413,-3.200227 c -0.186228,-0.190937 -0.43724,-0.298862 -0.704444,-0.298862 -0.2672,0 -0.514165,0.107921 -0.700397,0.298862 l -4.157836,4.258665 c -0.388657,0.398472 -0.388657,1.041862 0,1.44026 l 0.186229,0.190991 c 0.186227,0.190887 0.43724,0.29885 0.704439,0.29885 0.267202,0 0.514168,-0.107958 0.700399,-0.29885 l 3.267161,-3.349662 3.121412,3.200235 c 0.186228,0.190887 0.437243,0.298851 0.704443,0.298851 0.267202,0 0.514168,-0.107958 0.704444,-0.298851 l 6.800831,-7.009589 0.886558,0.904865 c 0.105265,0.107921 0.251093,0.257349 0.473666,0.257349 0.09313,0 0.186265,-0.0249 0.283453,-0.07885 0.06473,-0.03737 0.121443,-0.07886 0.169994,-0.128678 0.174133,-0.178496 0.206497,-0.406773 0.214588,-0.585263 0.03247,-0.763731 0.06886,-1.527473 0.105265,-2.295361 l 0.05269,-1.149764 c 0.01209,-0.240743 -0.04056,-0.427528 -0.166044,-0.560352 -0.117399,-0.128677 -0.295483,-0.195085 -0.522205,-0.195085 z" />
</svg>
