<?xml version="1.0" encoding="UTF-8" standalone="no"?>
<svg
   xmlns:dc="http://purl.org/dc/elements/1.1/"
   xmlns:cc="http://creativecommons.org/ns#"
   xmlns:rdf="http://www.w3.org/1999/02/22-rdf-syntax-ns#"
   xmlns:svg="http://www.w3.org/2000/svg"
   xmlns="http://www.w3.org/2000/svg"
   id="svg4582"
   version="1.1"
   fill="none"
   viewBox="0 0 50 40"
   height="40"
   width="50">
  <metadata
     id="metadata4588">
    <rdf:RDF>
      <cc:Work
         rdf:about="">
        <dc:format>image/svg+xml</dc:format>
        <dc:type
           rdf:resource="http://purl.org/dc/dcmitype/StillImage" />
        <dc:title></dc:title>
      </cc:Work>
    </rdf:RDF>
  </metadata>
  <defs
     id="defs4586" />
  <rect
     style="fill:none"
     id="rect4578"
     fill="#282E37"
     rx="4"
     height="40"
     width="50" />
  <path
     style="fill:#ffffff;stroke:none;stroke-opacity:1;fill-opacity:1"
     id="path4580"
     fill="#00D4FF"
     d="M28.9361 17.3128C28.8298 16.2301 28.2462 15.2974 27.414 14.7462C27.436 13.2265 28.6075 12.0005 30.0516 12C31.5097 12 32.6915 13.2483 32.6915 14.7884C32.6915 16.3283 31.5097 17.5766 30.0516 17.5766C29.6522 17.5766 29.2755 17.4803 28.9361 17.3128ZM27.7727 17.667C27.7727 19.2069 26.5909 20.4554 25.1328 20.4554C23.6749 20.4554 22.4924 19.2072 22.4924 17.6673C22.4924 16.1274 23.6749 14.8788 25.1328 14.8788C26.5906 14.8788 27.7727 16.1271 27.7727 17.667ZM26.2526 21.3369H24.0125C22.1487 21.3369 21 22.2473 21 24.216V27.1548C21 27.1548 22.9396 28 25.4239 28C27.9081 28 30 26.7837 30 26.7837V24.216C30.0007 22.2473 28.1164 21.3369 26.2526 21.3369ZM28.7768 18.5H30.9996C32.8631 18.5 34 19.3685 34 21.3369V24C34 24 33.1947 25.027 31 25.1119V24.2202C31 21.3369 27.5 20.5 27.5 20.5C27.5 20.5 28.7528 19.4394 28.7768 18.5ZM20.0172 17.5771C20.5337 17.5771 21.0142 17.4179 21.4212 17.1467C21.5506 16.2552 22.003 15.4763 22.6493 14.9457C22.6501 14.9301 22.6511 14.9144 22.6521 14.8988L22.6521 14.8988C22.6544 14.8624 22.6567 14.826 22.6567 14.7891C22.6567 13.249 21.4747 12.0007 20.0172 12.0007C18.5589 12.0007 17.3773 13.249 17.3773 14.7891C17.3773 16.3286 18.5589 17.5771 20.0172 17.5771ZM21.489 18.5C21.5156 19.4001 22.5 20.5 22.5 20.5C22.5 20.5 20 21.3369 20 24.2202V25.0941C17.6147 25.7778 16 24 16 24V21.3369C16 19.3685 17.1373 18.5 19.0011 18.5H21.489Z"
     clip-rule="evenodd"
     fill-rule="evenodd" />
</svg>
